<mxfile host="app.diagrams.net" agent="Mozilla/5.0 (Windows NT 10.0; Win64; x64; rv:135.0) Gecko/20100101 Firefox/135.0" version="26.0.16">
  <diagram name="Page-1" id="AP5UYcdKE5vPN6f5Gu-W">
    <mxGraphModel dx="2693" dy="1994" grid="1" gridSize="10" guides="1" tooltips="1" connect="1" arrows="1" fold="1" page="1" pageScale="1" pageWidth="850" pageHeight="1100" math="0" shadow="0">
      <root>
        <mxCell id="0" />
        <mxCell id="1" parent="0" />
        <mxCell id="eerZtvgGxdo1gej-tkgT-23" value="" style="strokeWidth=2;html=1;shape=mxgraph.flowchart.terminator;whiteSpace=wrap;" vertex="1" parent="1">
          <mxGeometry x="150" y="330" width="280" height="150" as="geometry" />
        </mxCell>
        <mxCell id="eerZtvgGxdo1gej-tkgT-6" value="Server" style="shape=umlFrame;whiteSpace=wrap;html=1;pointerEvents=0;" vertex="1" parent="1">
          <mxGeometry x="-40" y="-40" width="1110" height="760" as="geometry" />
        </mxCell>
        <mxCell id="eerZtvgGxdo1gej-tkgT-7" value="GUIs" style="shape=umlFrame;whiteSpace=wrap;html=1;pointerEvents=0;" vertex="1" parent="1">
          <mxGeometry x="-300" y="105" width="120" height="230" as="geometry" />
        </mxCell>
        <mxCell id="eerZtvgGxdo1gej-tkgT-8" value="Client" style="html=1;whiteSpace=wrap;" vertex="1" parent="1">
          <mxGeometry x="-275" y="155" width="70" height="50" as="geometry" />
        </mxCell>
        <mxCell id="eerZtvgGxdo1gej-tkgT-9" value="Client" style="html=1;whiteSpace=wrap;" vertex="1" parent="1">
          <mxGeometry x="-275" y="245" width="70" height="50" as="geometry" />
        </mxCell>
        <mxCell id="eerZtvgGxdo1gej-tkgT-41" style="edgeStyle=orthogonalEdgeStyle;rounded=0;orthogonalLoop=1;jettySize=auto;html=1;exitX=0.75;exitY=1;exitDx=0;exitDy=0;entryX=0.25;entryY=1;entryDx=0;entryDy=0;endArrow=block" edge="1" parent="1" source="eerZtvgGxdo1gej-tkgT-10" target="eerZtvgGxdo1gej-tkgT-38">
          <mxGeometry relative="1" as="geometry">
            <Array as="points">
              <mxPoint x="-15" y="690" />
              <mxPoint x="777" y="690" />
            </Array>
          </mxGeometry>
        </mxCell>
        <mxCell id="eerZtvgGxdo1gej-tkgT-10" value="AuthHandler" style="html=1;whiteSpace=wrap;" vertex="1" parent="1">
          <mxGeometry x="-90" y="160" width="100" height="120" as="geometry" />
        </mxCell>
        <mxCell id="eerZtvgGxdo1gej-tkgT-11" value="" style="endArrow=block;startArrow=block;endFill=1;startFill=1;html=1;rounded=0;entryX=0;entryY=0.25;entryDx=0;entryDy=0;exitX=1;exitY=0.5;exitDx=0;exitDy=0;" edge="1" parent="1" source="eerZtvgGxdo1gej-tkgT-8" target="eerZtvgGxdo1gej-tkgT-10">
          <mxGeometry width="160" relative="1" as="geometry">
            <mxPoint x="-265" y="154.5" as="sourcePoint" />
            <mxPoint x="-105" y="154.5" as="targetPoint" />
          </mxGeometry>
        </mxCell>
        <mxCell id="eerZtvgGxdo1gej-tkgT-12" value="" style="endArrow=block;startArrow=block;endFill=1;startFill=1;html=1;rounded=0;entryX=0;entryY=0.75;entryDx=0;entryDy=0;exitX=1;exitY=0.5;exitDx=0;exitDy=0;" edge="1" parent="1" source="eerZtvgGxdo1gej-tkgT-9" target="eerZtvgGxdo1gej-tkgT-10">
          <mxGeometry width="160" relative="1" as="geometry">
            <mxPoint x="-255" y="164.5" as="sourcePoint" />
            <mxPoint x="-80" y="185" as="targetPoint" />
          </mxGeometry>
        </mxCell>
        <mxCell id="eerZtvgGxdo1gej-tkgT-13" value="NetworkManager" style="html=1;whiteSpace=wrap;" vertex="1" parent="1">
          <mxGeometry x="160" y="160" width="120" height="120" as="geometry" />
        </mxCell>
        <mxCell id="eerZtvgGxdo1gej-tkgT-15" value="" style="endArrow=block;startArrow=block;endFill=1;startFill=1;html=1;rounded=0;exitX=1;exitY=0.25;exitDx=0;exitDy=0;entryX=0;entryY=0.25;entryDx=0;entryDy=0;" edge="1" parent="1" source="eerZtvgGxdo1gej-tkgT-10" target="eerZtvgGxdo1gej-tkgT-13">
          <mxGeometry width="160" relative="1" as="geometry">
            <mxPoint x="70" y="280" as="sourcePoint" />
            <mxPoint x="230" y="280" as="targetPoint" />
          </mxGeometry>
        </mxCell>
        <mxCell id="eerZtvgGxdo1gej-tkgT-16" value="" style="endArrow=block;startArrow=block;endFill=1;startFill=1;html=1;rounded=0;exitX=1;exitY=0.75;exitDx=0;exitDy=0;entryX=0;entryY=0.75;entryDx=0;entryDy=0;" edge="1" parent="1" source="eerZtvgGxdo1gej-tkgT-10" target="eerZtvgGxdo1gej-tkgT-13">
          <mxGeometry width="160" relative="1" as="geometry">
            <mxPoint x="20" y="200" as="sourcePoint" />
            <mxPoint x="210" y="200" as="targetPoint" />
          </mxGeometry>
        </mxCell>
        <mxCell id="eerZtvgGxdo1gej-tkgT-39" style="edgeStyle=orthogonalEdgeStyle;rounded=0;orthogonalLoop=1;jettySize=auto;html=1;entryX=0.25;entryY=0;entryDx=0;entryDy=0;endArrow=block;startArrow=block;exitX=1;exitY=0.75;exitDx=0;exitDy=0;" edge="1" parent="1" source="eerZtvgGxdo1gej-tkgT-17" target="eerZtvgGxdo1gej-tkgT-38">
          <mxGeometry relative="1" as="geometry" />
        </mxCell>
        <mxCell id="eerZtvgGxdo1gej-tkgT-17" value="ServerController" style="html=1;whiteSpace=wrap;" vertex="1" parent="1">
          <mxGeometry x="320" width="120" height="120" as="geometry" />
        </mxCell>
        <mxCell id="eerZtvgGxdo1gej-tkgT-19" value="" style="endArrow=block;startArrow=block;endFill=1;startFill=1;html=1;rounded=0;exitX=0.75;exitY=0;exitDx=0;exitDy=0;entryX=0;entryY=0.5;entryDx=0;entryDy=0;" edge="1" parent="1" source="eerZtvgGxdo1gej-tkgT-13" target="eerZtvgGxdo1gej-tkgT-17">
          <mxGeometry width="160" relative="1" as="geometry">
            <mxPoint x="250" y="300" as="sourcePoint" />
            <mxPoint x="410" y="300" as="targetPoint" />
            <Array as="points">
              <mxPoint x="250" y="60" />
            </Array>
          </mxGeometry>
        </mxCell>
        <mxCell id="eerZtvgGxdo1gej-tkgT-24" value="&lt;div&gt;Game&lt;/div&gt;&lt;div&gt;State&lt;/div&gt;&lt;div&gt;Synchronizer&lt;/div&gt;" style="html=1;whiteSpace=wrap;" vertex="1" parent="1">
          <mxGeometry x="180" y="365" width="80" height="80" as="geometry" />
        </mxCell>
        <mxCell id="eerZtvgGxdo1gej-tkgT-25" value="This is where all the game logic is stored as individual game classes." style="shape=note2;boundedLbl=1;whiteSpace=wrap;html=1;size=15;verticalAlign=top;align=center;" vertex="1" parent="1">
          <mxGeometry x="620" y="365" width="120" height="90" as="geometry" />
        </mxCell>
        <mxCell id="eerZtvgGxdo1gej-tkgT-26" value="Game Logic" style="shape=umlFrame;whiteSpace=wrap;html=1;pointerEvents=0;width=90;height=30;" vertex="1" parent="1">
          <mxGeometry x="480" y="140" width="240" height="180" as="geometry" />
        </mxCell>
        <mxCell id="eerZtvgGxdo1gej-tkgT-27" value="Checkers" style="html=1;whiteSpace=wrap;" vertex="1" parent="1">
          <mxGeometry x="500" y="190" width="90" height="45" as="geometry" />
        </mxCell>
        <mxCell id="eerZtvgGxdo1gej-tkgT-28" value="TicTacToe" style="html=1;whiteSpace=wrap;" vertex="1" parent="1">
          <mxGeometry x="610" y="190" width="90" height="45" as="geometry" />
        </mxCell>
        <mxCell id="eerZtvgGxdo1gej-tkgT-29" value="Connect4" style="html=1;whiteSpace=wrap;" vertex="1" parent="1">
          <mxGeometry x="560" y="250" width="90" height="45" as="geometry" />
        </mxCell>
        <mxCell id="eerZtvgGxdo1gej-tkgT-32" style="edgeStyle=orthogonalEdgeStyle;rounded=0;orthogonalLoop=1;jettySize=auto;html=1;entryX=0.5;entryY=0;entryDx=0;entryDy=0;endArrow=block" edge="1" parent="1" source="eerZtvgGxdo1gej-tkgT-26" target="eerZtvgGxdo1gej-tkgT-35">
          <mxGeometry relative="1" as="geometry" />
        </mxCell>
        <mxCell id="eerZtvgGxdo1gej-tkgT-33" value="Instance" style="edgeLabel;html=1;align=center;verticalAlign=middle;resizable=0;points=[];" vertex="1" connectable="0" parent="eerZtvgGxdo1gej-tkgT-32">
          <mxGeometry x="0.0403" y="-3" relative="1" as="geometry">
            <mxPoint y="10" as="offset" />
          </mxGeometry>
        </mxCell>
        <mxCell id="eerZtvgGxdo1gej-tkgT-40" style="edgeStyle=orthogonalEdgeStyle;rounded=0;orthogonalLoop=1;jettySize=auto;html=1;entryX=0;entryY=0.25;entryDx=0;entryDy=0;endArrow=block;startArrow=block" edge="1" parent="1" source="eerZtvgGxdo1gej-tkgT-35" target="eerZtvgGxdo1gej-tkgT-38">
          <mxGeometry relative="1" as="geometry" />
        </mxCell>
        <mxCell id="eerZtvgGxdo1gej-tkgT-35" value="&lt;div&gt;Game&lt;/div&gt;&lt;div&gt;Session&lt;/div&gt;&lt;div&gt;Manager&lt;/div&gt;" style="html=1;whiteSpace=wrap;" vertex="1" parent="1">
          <mxGeometry x="320" y="365" width="80" height="80" as="geometry" />
        </mxCell>
        <mxCell id="eerZtvgGxdo1gej-tkgT-36" value="" style="endArrow=block;startArrow=block;endFill=1;startFill=1;html=1;rounded=0;exitX=1;exitY=0.5;exitDx=0;exitDy=0;entryX=0;entryY=0.5;entryDx=0;entryDy=0;" edge="1" parent="1" source="eerZtvgGxdo1gej-tkgT-24" target="eerZtvgGxdo1gej-tkgT-35">
          <mxGeometry width="160" relative="1" as="geometry">
            <mxPoint x="240" y="300" as="sourcePoint" />
            <mxPoint x="400" y="300" as="targetPoint" />
          </mxGeometry>
        </mxCell>
        <mxCell id="eerZtvgGxdo1gej-tkgT-37" value="Database" style="shape=umlFrame;whiteSpace=wrap;html=1;pointerEvents=0;width=70;height=30;" vertex="1" parent="1">
          <mxGeometry x="800" y="390" width="270" height="330" as="geometry" />
        </mxCell>
        <mxCell id="eerZtvgGxdo1gej-tkgT-38" value="&lt;div&gt;Database&lt;/div&gt;&lt;div&gt;Connector&lt;/div&gt;" style="html=1;whiteSpace=wrap;" vertex="1" parent="1">
          <mxGeometry x="760" y="470" width="70" height="90" as="geometry" />
        </mxCell>
        <mxCell id="eerZtvgGxdo1gej-tkgT-42" value="Players" style="strokeWidth=2;html=1;shape=mxgraph.flowchart.start_1;whiteSpace=wrap;" vertex="1" parent="1">
          <mxGeometry x="910" y="435" width="100" height="60" as="geometry" />
        </mxCell>
        <mxCell id="eerZtvgGxdo1gej-tkgT-43" value="Match History" style="strokeWidth=2;html=1;shape=mxgraph.flowchart.start_1;whiteSpace=wrap;" vertex="1" parent="1">
          <mxGeometry x="910" y="525" width="100" height="60" as="geometry" />
        </mxCell>
        <mxCell id="eerZtvgGxdo1gej-tkgT-44" value="Leaderboard" style="strokeWidth=2;html=1;shape=mxgraph.flowchart.start_1;whiteSpace=wrap;" vertex="1" parent="1">
          <mxGeometry x="910" y="615" width="100" height="60" as="geometry" />
        </mxCell>
        <mxCell id="eerZtvgGxdo1gej-tkgT-49" value="" style="endArrow=block;startArrow=block;endFill=1;startFill=1;html=1;rounded=0;exitX=1;exitY=0.5;exitDx=0;exitDy=0;entryX=0;entryY=0.5;entryDx=0;entryDy=0;entryPerimeter=0;" edge="1" parent="1" source="eerZtvgGxdo1gej-tkgT-38" target="eerZtvgGxdo1gej-tkgT-44">
          <mxGeometry width="160" relative="1" as="geometry">
            <mxPoint x="750" y="679.62" as="sourcePoint" />
            <mxPoint x="910" y="679.62" as="targetPoint" />
            <Array as="points">
              <mxPoint x="870" y="515" />
              <mxPoint x="870" y="645" />
            </Array>
          </mxGeometry>
        </mxCell>
        <mxCell id="eerZtvgGxdo1gej-tkgT-50" value="" style="endArrow=block;startArrow=block;endFill=1;startFill=1;html=1;rounded=0;exitX=1;exitY=0.5;exitDx=0;exitDy=0;entryX=0;entryY=0.5;entryDx=0;entryDy=0;entryPerimeter=0;" edge="1" parent="1" source="eerZtvgGxdo1gej-tkgT-38" target="eerZtvgGxdo1gej-tkgT-42">
          <mxGeometry width="160" relative="1" as="geometry">
            <mxPoint x="680" y="560" as="sourcePoint" />
            <mxPoint x="840" y="560" as="targetPoint" />
            <Array as="points">
              <mxPoint x="870" y="515" />
              <mxPoint x="870" y="465" />
            </Array>
          </mxGeometry>
        </mxCell>
        <mxCell id="eerZtvgGxdo1gej-tkgT-52" value="" style="endArrow=block;startArrow=block;endFill=1;startFill=1;html=1;rounded=0;exitX=1;exitY=0.5;exitDx=0;exitDy=0;entryX=0;entryY=0.5;entryDx=0;entryDy=0;entryPerimeter=0;" edge="1" parent="1" source="eerZtvgGxdo1gej-tkgT-38" target="eerZtvgGxdo1gej-tkgT-43">
          <mxGeometry width="160" relative="1" as="geometry">
            <mxPoint x="680" y="570" as="sourcePoint" />
            <mxPoint x="840" y="570" as="targetPoint" />
            <Array as="points">
              <mxPoint x="870" y="515" />
              <mxPoint x="870" y="555" />
            </Array>
          </mxGeometry>
        </mxCell>
        <mxCell id="eerZtvgGxdo1gej-tkgT-56" value="" style="endArrow=block;startArrow=block;endFill=1;startFill=1;html=1;rounded=0;exitX=0.5;exitY=1;exitDx=0;exitDy=0;entryX=0.5;entryY=0;entryDx=0;entryDy=0;" edge="1" parent="1" source="eerZtvgGxdo1gej-tkgT-13" target="eerZtvgGxdo1gej-tkgT-24">
          <mxGeometry width="160" relative="1" as="geometry">
            <mxPoint x="220" y="370" as="sourcePoint" />
            <mxPoint x="380" y="370" as="targetPoint" />
          </mxGeometry>
        </mxCell>
        <mxCell id="eerZtvgGxdo1gej-tkgT-57" value="Handles all executive decisions for the server." style="shape=note2;boundedLbl=1;whiteSpace=wrap;html=1;size=15;verticalAlign=top;align=center;" vertex="1" parent="1">
          <mxGeometry x="520" width="140" height="60" as="geometry" />
        </mxCell>
        <mxCell id="eerZtvgGxdo1gej-tkgT-58" value="" style="endArrow=none;dashed=1;html=1;rounded=0;exitX=1;exitY=0.25;exitDx=0;exitDy=0;entryX=0;entryY=0.5;entryDx=0;entryDy=0;entryPerimeter=0;" edge="1" parent="1" source="eerZtvgGxdo1gej-tkgT-17" target="eerZtvgGxdo1gej-tkgT-57">
          <mxGeometry width="50" height="50" relative="1" as="geometry">
            <mxPoint x="330" y="-30" as="sourcePoint" />
            <mxPoint x="380" y="-80" as="targetPoint" />
          </mxGeometry>
        </mxCell>
        <mxCell id="eerZtvgGxdo1gej-tkgT-59" value="Handles and routes all network traffic in the server" style="shape=note2;boundedLbl=1;whiteSpace=wrap;html=1;size=15;verticalAlign=top;align=center;" vertex="1" parent="1">
          <mxGeometry x="50" width="120" height="80" as="geometry" />
        </mxCell>
        <mxCell id="eerZtvgGxdo1gej-tkgT-60" value="" style="endArrow=none;dashed=1;html=1;rounded=0;entryX=0.5;entryY=1;entryDx=0;entryDy=0;entryPerimeter=0;exitX=0.25;exitY=0;exitDx=0;exitDy=0;" edge="1" parent="1" source="eerZtvgGxdo1gej-tkgT-13" target="eerZtvgGxdo1gej-tkgT-59">
          <mxGeometry width="50" height="50" relative="1" as="geometry">
            <mxPoint x="260" y="240" as="sourcePoint" />
            <mxPoint x="310" y="190" as="targetPoint" />
            <Array as="points">
              <mxPoint x="190" y="120" />
              <mxPoint x="110" y="120" />
            </Array>
          </mxGeometry>
        </mxCell>
        <mxCell id="eerZtvgGxdo1gej-tkgT-61" value="Processes login/logout&lt;br&gt;requests and maintains user sessions through the network" style="shape=note2;boundedLbl=1;whiteSpace=wrap;html=1;size=15;verticalAlign=top;align=center;" vertex="1" parent="1">
          <mxGeometry x="-270" y="380" width="150" height="90" as="geometry" />
        </mxCell>
        <mxCell id="eerZtvgGxdo1gej-tkgT-64" value="" style="endArrow=none;dashed=1;html=1;rounded=0;entryX=0.25;entryY=1;entryDx=0;entryDy=0;exitX=0;exitY=0;exitDx=150;exitDy=52.5;exitPerimeter=0;" edge="1" parent="1" source="eerZtvgGxdo1gej-tkgT-61" target="eerZtvgGxdo1gej-tkgT-10">
          <mxGeometry width="50" height="50" relative="1" as="geometry">
            <mxPoint x="30" y="370" as="sourcePoint" />
            <mxPoint x="80" y="320" as="targetPoint" />
            <Array as="points">
              <mxPoint x="-65" y="433" />
            </Array>
          </mxGeometry>
        </mxCell>
        <mxCell id="eerZtvgGxdo1gej-tkgT-65" value="Game Session" style="text;html=1;align=center;verticalAlign=middle;whiteSpace=wrap;rounded=0;" vertex="1" parent="1">
          <mxGeometry x="240" y="330" width="100" height="30" as="geometry" />
        </mxCell>
        <mxCell id="eerZtvgGxdo1gej-tkgT-66" value="This is the game session where the game takes place between two clients." style="shape=note2;boundedLbl=1;whiteSpace=wrap;html=1;size=15;verticalAlign=top;align=center;" vertex="1" parent="1">
          <mxGeometry x="227.5" y="560" width="125" height="100" as="geometry" />
        </mxCell>
        <mxCell id="eerZtvgGxdo1gej-tkgT-67" value="" style="endArrow=none;dashed=1;html=1;rounded=0;exitX=0.5;exitY=0;exitDx=0;exitDy=0;exitPerimeter=0;entryX=0.5;entryY=1;entryDx=0;entryDy=0;entryPerimeter=0;" edge="1" parent="1" source="eerZtvgGxdo1gej-tkgT-66" target="eerZtvgGxdo1gej-tkgT-23">
          <mxGeometry width="50" height="50" relative="1" as="geometry">
            <mxPoint x="360" y="510" as="sourcePoint" />
            <mxPoint x="410" y="460" as="targetPoint" />
          </mxGeometry>
        </mxCell>
        <mxCell id="eerZtvgGxdo1gej-tkgT-68" value="Ensures that all clients maintain a consistent game&lt;br&gt;state, sends game state updates to clients." style="shape=note2;boundedLbl=1;whiteSpace=wrap;html=1;size=15;verticalAlign=top;align=center;" vertex="1" parent="1">
          <mxGeometry x="30" y="560" width="160" height="95" as="geometry" />
        </mxCell>
        <mxCell id="eerZtvgGxdo1gej-tkgT-69" value="" style="endArrow=none;dashed=1;html=1;rounded=0;entryX=0.5;entryY=1;entryDx=0;entryDy=0;exitX=0.5;exitY=0;exitDx=0;exitDy=0;exitPerimeter=0;" edge="1" parent="1" source="eerZtvgGxdo1gej-tkgT-68" target="eerZtvgGxdo1gej-tkgT-24">
          <mxGeometry width="50" height="50" relative="1" as="geometry">
            <mxPoint x="360" y="500" as="sourcePoint" />
            <mxPoint x="410" y="450" as="targetPoint" />
            <Array as="points">
              <mxPoint x="110" y="510" />
              <mxPoint x="220" y="510" />
            </Array>
          </mxGeometry>
        </mxCell>
        <mxCell id="eerZtvgGxdo1gej-tkgT-70" value="Manages the session, establishes communication between the game logic and the GameStateSynchronizer." style="shape=note2;boundedLbl=1;whiteSpace=wrap;html=1;size=15;verticalAlign=top;align=center;" vertex="1" parent="1">
          <mxGeometry x="390" y="560" width="170" height="95" as="geometry" />
        </mxCell>
        <mxCell id="eerZtvgGxdo1gej-tkgT-71" value="" style="endArrow=none;dashed=1;html=1;rounded=0;entryX=0.5;entryY=1;entryDx=0;entryDy=0;exitX=0;exitY=0;exitDx=72.5;exitDy=0;exitPerimeter=0;" edge="1" parent="1" source="eerZtvgGxdo1gej-tkgT-70" target="eerZtvgGxdo1gej-tkgT-35">
          <mxGeometry width="50" height="50" relative="1" as="geometry">
            <mxPoint x="320" y="540" as="sourcePoint" />
            <mxPoint x="370" y="490" as="targetPoint" />
            <Array as="points">
              <mxPoint x="463" y="510" />
              <mxPoint x="360" y="510" />
            </Array>
          </mxGeometry>
        </mxCell>
        <mxCell id="eerZtvgGxdo1gej-tkgT-74" value="Handles the connection between the application and the&lt;br&gt;PostgreSQL database" style="shape=note2;boundedLbl=1;whiteSpace=wrap;html=1;size=15;verticalAlign=top;align=center;" vertex="1" parent="1">
          <mxGeometry x="600" y="560" width="140" height="95" as="geometry" />
        </mxCell>
        <mxCell id="eerZtvgGxdo1gej-tkgT-75" value="" style="endArrow=none;dashed=1;html=1;rounded=0;entryX=0;entryY=0.75;entryDx=0;entryDy=0;exitX=0;exitY=0;exitDx=62.5;exitDy=0;exitPerimeter=0;" edge="1" parent="1" source="eerZtvgGxdo1gej-tkgT-74" target="eerZtvgGxdo1gej-tkgT-38">
          <mxGeometry width="50" height="50" relative="1" as="geometry">
            <mxPoint x="500" y="610" as="sourcePoint" />
            <mxPoint x="550" y="560" as="targetPoint" />
            <Array as="points">
              <mxPoint x="663" y="538" />
              <mxPoint x="680" y="538" />
            </Array>
          </mxGeometry>
        </mxCell>
        <mxCell id="eerZtvgGxdo1gej-tkgT-76" value="" style="endArrow=none;dashed=1;html=1;rounded=0;entryX=0;entryY=0;entryDx=52.5;entryDy=0;entryPerimeter=0;exitX=0.802;exitY=0.999;exitDx=0;exitDy=0;exitPerimeter=0;" edge="1" parent="1" source="eerZtvgGxdo1gej-tkgT-26" target="eerZtvgGxdo1gej-tkgT-25">
          <mxGeometry width="50" height="50" relative="1" as="geometry">
            <mxPoint x="490" y="380" as="sourcePoint" />
            <mxPoint x="540" y="330" as="targetPoint" />
          </mxGeometry>
        </mxCell>
        <mxCell id="eerZtvgGxdo1gej-tkgT-77" value="These are the client&#39;s GUIs" style="shape=note2;boundedLbl=1;whiteSpace=wrap;html=1;size=15;verticalAlign=top;align=center;" vertex="1" parent="1">
          <mxGeometry x="-200" y="-10" width="110" height="65" as="geometry" />
        </mxCell>
        <mxCell id="eerZtvgGxdo1gej-tkgT-78" value="" style="endArrow=none;dashed=1;html=1;rounded=0;exitX=0.5;exitY=1;exitDx=0;exitDy=0;exitPerimeter=0;entryX=0.501;entryY=-0.004;entryDx=0;entryDy=0;entryPerimeter=0;" edge="1" parent="1" source="eerZtvgGxdo1gej-tkgT-77" target="eerZtvgGxdo1gej-tkgT-7">
          <mxGeometry width="50" height="50" relative="1" as="geometry">
            <mxPoint x="-110" y="360" as="sourcePoint" />
            <mxPoint x="-130" y="100" as="targetPoint" />
            <Array as="points">
              <mxPoint x="-145" y="80" />
              <mxPoint x="-240" y="80" />
            </Array>
          </mxGeometry>
        </mxCell>
      </root>
    </mxGraphModel>
  </diagram>
</mxfile>
